<svg
  width="200"
  height="200"
  viewBox="0 0 200 200"
  fill="none"
  xmlns="http://www.w3.org/2000/svg"
>
  <defs>
    <linearGradient id="purplePinkGradient" x1="0%" y1="0%" x2="100%" y2="100%">
      <stop offset="0%" stop-color="#8B5CF6" />
      <stop offset="100%" stop-color="#EC4899" />
    </linearGradient>
    <linearGradient id="glowGradient" x1="0%" y1="0%" x2="100%" y2="100%">
      <stop offset="0%" stop-color="#8B5CF6" stop-opacity="0.3" />
      <stop offset="100%" stop-color="#EC4899" stop-opacity="0.1" />
    </linearGradient>
  </defs>

  <circle cx="100" cy="100" r="95" fill="url(#glowGradient)" />
  <circle cx="100" cy="100" r="85" fill="url(#purplePinkGradient)" />
  <circle cx="100" cy="100" r="75" fill="white" />

  <g transform="translate(72, 55)">
    <path
      d="M28 35C39.046 35 48 27.046 48 16C48 4.954 39.046 -3 28 -3C16.954 -3 8 4.954 8 16C8 22.5 10.5 28.5 15 32.5V40C15 42.209 16.791 44 19 44H37C39.209 44 41 42.209 41 40V32.5C45.5 28.5 48 22.5 48 16Z"
      fill="#000000"
    />
    <rect x="18" y="44" width="20" height="5" rx="2" fill="#000000" />
    <rect x="20" y="49" width="16" height="4" rx="2" fill="#000000" />
    <ellipse cx="22" cy="10" rx="4" ry="5" fill="#FFF" opacity="0.7" />
    <circle cx="20" cy="8" r="2" fill="#FFF" opacity="0.9" />
  </g>

  <g stroke="url(#purplePinkGradient)" stroke-width="3" stroke-linecap="round">
    <line x1="100" y1="5" x2="100" y2="15" />
    <line x1="100" y1="185" x2="100" y2="195" />
    <line x1="5" y1="100" x2="15" y2="100" />
    <line x1="185" y1="100" x2="195" y2="100" />
    <line x1="29.3" y1="29.3" x2="36.4" y2="36.4" />
    <line x1="163.6" y1="163.6" x2="170.7" y2="170.7" />
    <line x1="29.3" y1="170.7" x2="36.4" y2="163.6" />
    <line x1="163.6" y1="36.4" x2="170.7" y2="29.3" />
  </g>

  <text
    x="100"
    y="145"
    font-family="system-ui, -apple-system, sans-serif"
    font-size="28"
    font-weight="700"
    fill="url(#purplePinkGradient)"
    text-anchor="middle"
  >
    H
  </text>
</svg>